<svg id="Capa_1" data-name="Capa 1" xmlns="http://www.w3.org/2000/svg" viewBox="0 0 1200 1095"><defs><style>.cls-1{fill:#0959a8;}.cls-2{fill:#febe44;}.cls-3{fill:#010101;}.cls-4{fill:#020202;}.cls-5{fill:#030303;}.cls-6{fill:#fdfdfd;}.cls-7{fill:#fafafa;}</style></defs><title>web</title><path class="cls-1" d="M612.26,513.11c0-7.18.22-14.38-.09-21.55-.16-3.88,1.25-4.75,4.86-4.7,11.51.15,23.06.53,34.47-1.67a52.22,52.22,0,0,0,12.93-4.1c10.44-5.1,16.32-13.08,16-25.11-.34-11.74-6.21-19.89-16.82-24-17.84-6.83-35.28-3.92-52.08,4.09-8.62,4.11-15.93,10.18-22.42,17.11-2.41,2.57-3.75,2.56-6.29.23q-15.24-14-30.9-27.56c-2.85-2.45-2.92-3.84-.25-6.52,19.46-19.55,42.64-31.7,70.1-35,19.42-2.34,38.83-2.49,57.84,3.31,39.69,12.1,61.83,50.24,51.77,89.4a52.34,52.34,0,0,1-18.19,28.68c-2.73,2.18-3.83,3.14,0,5.69,19.59,13,28.74,31.8,29.64,55,1.14,29.65-8.42,54.61-32.08,73.27-15.2,12-33.12,17.26-52.06,18.66-40,2.94-76.11-6.5-105.9-34.89-10.54-10-10.6-10-.33-19.74,8.77-8.34,17.67-16.55,26.18-25.14,3.46-3.49,5.38-3.93,9,.1,12,13.36,26.38,23.18,44.54,26.22,9.93,1.66,19.9,2.23,29.77-.62,13.64-3.92,22.49-14.12,23.63-27.31,1.26-14.51-5.17-25.39-18.87-31.72-9.8-4.53-20.23-6-30.91-6.05-6-.06-12.11-.24-18.14.06-4.06.21-5.75-.75-5.49-5.24C612.56,527.12,612.26,520.11,612.26,513.11Z"/><path class="cls-1" d="M417.26,653.51c-64.54.08-116.15-40.21-130.1-101.58-15.68-68.94,21.65-138.4,87.27-157.68,51.15-15,99.51-8.46,141,28.49,3.68,3.27,3.79,5.15.43,8.8-9.7,10.59-19.08,21.48-28.26,32.52-3,3.62-4.69,4.27-8.65.87-11.79-10.16-24.59-18.92-40-22.85-44.47-11.37-86.46,15.71-94.47,61.12-4.32,24.49,0,47.37,14.41,68,22.74,32.54,65,37.29,95.27,22.45A116.2,116.2,0,0,0,482,574.3c2.63-2.44,4.12-2.57,6.7.13,9.14,9.56,18.29,19.15,28,28.11,4.62,4.26,3.73,6.46-.26,10.35C486.67,642,458.92,653.46,417.26,653.51Z"/><path class="cls-2" d="M916.37,512.88c.07,54.72-13.48,100-42.18,140.71-2.62,3.71-4.31,4.36-8.2,1.42-11.3-8.54-22.91-16.67-34.57-24.73-2.8-1.94-3.32-3.13-1.11-6,21.64-28.13,32.22-60.12,34-95.47,2.14-41.45-7.2-79.37-32.38-112.84-1.91-2.55-2-3.88.92-5.65q19.3-11.87,38.37-24.13c2.66-1.71,3.77-1,5.35,1.28a215,215,0,0,1,37.49,96.11C915.65,495,916.61,506.45,916.37,512.88Z"/><path class="cls-2" d="M839.33,516.71c.09,28.86-6.28,56.09-20,81.61-2.41,4.49-4.22,5-8.27,1.89A153.59,153.59,0,0,0,795,589.63c-3-1.79-3.08-3.36-1.5-6.29,11.59-21.6,16.67-44.73,16.06-69.21a124.61,124.61,0,0,0-14.06-55.45c-2.7-5.16-1.88-7.29,2.93-9.79a146,146,0,0,0,16.33-10.19c3.23-2.26,4.52-1.47,6.21,1.77C833.41,464.38,839.75,489.72,839.33,516.71Z"/><path class="cls-2" d="M788.21,520.31a114.14,114.14,0,0,1-6.38,40.75c-1.14,3.32-2.46,5-5.7,2.11-.28-.25-.67-.36-1-.58-3.72-2.59-8.31-4.53-10.92-8-3.07-4,1.29-8.37,2.11-12.61,3.07-15.86,3-31.53-2.22-46.92-1-2.91-.67-4.48,2.1-5.82,2.37-1.15,4.54-2.71,6.81-4.07,8.19-4.92,8.24-4.93,11,4.49A97.92,97.92,0,0,1,788.21,520.31Z"/><path class="cls-3" d="M628.15,735.8c0-11.12.08-20.72,0-30.31,0-3.16,0-5.17,4.31-5.08,3.86.08,4.66,1.29,4.6,4.86-.19,13.4,0,26.81-.17,40.21,0,2,1.9,5.34-1.82,6.11-3.18.65-6,.06-8.3-3.11-6.92-9.43-14.24-18.56-21.49-27.74-1.09-1.38-1.74-3.3-4.29-4,0,10.37-.13,20.47.07,30.57.07,3.36-.66,4.57-4.31,4.55s-4.36-1.28-4.32-4.6c.17-13.4,0-26.8.17-40.2,0-2.1-1.9-5.47,1.52-6.26s6.67-.6,9.34,3.12c6.81,9.5,14.2,18.59,21.36,27.84C625.55,732.74,626.39,733.69,628.15,735.8Z"/><path class="cls-3" d="M815.1,734.64c0-10,.14-19.68-.07-29.39-.08-3.48.59-4.79,4.5-4.84,4.27-.07,4.31,1.9,4.29,5.07-.11,13.59,0,27.17-.11,40.76,0,1.82,1.35,4.69-1.49,5.28s-5.75.76-8.07-2.33c-7.69-10.26-15.69-20.29-23.57-30.41-.54-.69-1.15-1.34-2.65-3.09,0,11.11-.13,21,.08,30.84.07,3.6-.37,5.33-4.73,5.35s-4.23-2.19-4.22-5.23c.08-13.4,0-26.8.13-40.2,0-1.9-1.75-5.17,1.52-5.67,3.07-.48,6.49-1.23,9.13,2.39,6.75,9.31,13.89,18.34,21,27.41C811.89,732,812.49,733.93,815.1,734.64Z"/><path class="cls-3" d="M417.64,751.14c-6.93,1.68-11.63.38-14.64-5.77-1.64-3.35-4.29-6.19-6.39-9.32a4.82,4.82,0,0,0-4.07-2.41c-8.62-.6-8.61-.69-8.62,8a27.25,27.25,0,0,0,0,4.52c.89,5.11-1.67,6-6,5.65-2.65-.19-3.05-1.24-3-3.46.06-14.91.09-29.82,0-44.73,0-2.61,1-3.12,3.3-3.08,7,.12,14-.09,21,.1,8.83.25,15.09,4.61,16.83,11.6,1.89,7.54-.78,16.27-9,19.11-2.73.95-1.77,2.07-.65,3.63C410,740.16,413.62,745.4,417.64,751.14Z"/><path class="cls-4" d="M492.74,734.18c0,11.88-1.9,14.34-13.43,17.48-12.4,3.37-25.64-1.8-31.34-12.25-5.55-10.17-3.38-24.6,4.9-32.5,8.68-8.28,23.93-9.69,34.17-3,1.32.86,4.83,1.51,2.45,4.24-1.8,2.06-2.67,6.51-7.61,3.06-7.12-5-15.42-4.38-21,.42a19.37,19.37,0,0,0-5.29,21.68c3.9,10.34,17.3,14.51,26.49,8.34,3.57-2.39,1.85-5.85,1.83-8.77,0-3.35-3.13-1.43-4.84-1.92-3.1-.88-8.67,2.7-8.1-4.74.17-2.35.7-3.37,3.23-3.29a128.53,128.53,0,0,0,13.6,0c4-.28,5.53,1,5,5A49.77,49.77,0,0,0,492.74,734.18Z"/><path class="cls-4" d="M523.89,725.75c0-7,.14-14-.06-21-.08-3,.55-4.35,4-4.27,10,.22,20,.16,30.05,0,2.82,0,4.09.57,4,3.72-.1,2.84-.29,4.56-3.92,4.41-6.79-.29-13.61.14-20.4-.17-3.79-.17-5.14,1-4.62,4.73a17.18,17.18,0,0,1,0,4.53c-.39,3.16.72,4.36,4,4.23,5.85-.24,11.72,0,17.58-.11,2.8-.08,4.08.57,4,3.73-.08,2.95-.5,4.53-4,4.36-5.84-.27-11.72.11-17.57-.14-3.32-.15-4,1.07-4.06,4.19-.06,9.72-.19,9.72,9.24,9.72,5.3,0,10.59.13,15.88-.05,2.91-.11,4.49.26,4.35,3.84-.12,3-.63,4.34-4,4.26-10.2-.21-20.41-.17-30.62,0-3,0-3.89-.94-3.82-3.89C524,740.5,523.89,733.13,523.89,725.75Z"/><path class="cls-4" d="M904.61,751.28c-8.51,1-8.78,1.07-11.68-6.89-1.47-4-3.4-5.85-7.73-5.19a24.06,24.06,0,0,1-6.78,0c-8-1.09-14,.41-16,9.77-1.12,5.23-6.13,1.36-8.81,3-1.41-1.87-.19-2.94.27-4,6.29-14.52,12.71-29,18.88-43.54,1.27-3,2.71-4.28,6.15-4.32,3.59,0,4.83,1.58,6.06,4.48,6.12,14.38,12.46,28.67,18.66,43C904.11,748.73,905.16,749.82,904.61,751.28Z"/><path class="cls-3" d="M293.05,752.21c7.55-17.29,14.49-33.32,21.56-49.29,1.51-3.44,8.72-4.16,10.17-.9C332,718.29,339,734.69,346,751.1c-6.73,2.07-10.63.06-11.95-6.37-1-4.79-4-6.14-8.58-5.52a23.06,23.06,0,0,1-6.21,0c-8.06-1.13-13.94.45-15.9,9.83C302.31,754.19,297.34,750.69,293.05,752.21Z"/><path class="cls-4" d="M682.25,730.05c0-5.67-.16-11.35.06-17,.12-3.1-.67-4.56-4-4.23-2.62.25-5.3-.11-7.93.09-3.14.24-4.74-.28-4.72-4.15s1.43-4.28,4.65-4.24c11.15.17,22.31.23,33.45,0,3.71-.09,3.77,1.64,3.78,4.42s-.29,4.1-3.58,4.05c-4.07-.07-9.66-2-11.85.9-2,2.65-.7,8-.72,12.1-.05,8.5-.2,17,.08,25.51.12,3.71-1.3,4.38-4.6,4.33-3.11,0-4.9-.29-4.67-4.19C682.5,741.78,682.25,735.9,682.25,730.05Z"/><path class="cls-5" d="M746.07,726.49c0,7-.2,14,.09,20.94.15,3.59-1,4.58-4.45,4.36-2.83-.19-4.92.14-4.84-4q.4-21.79,0-43.59c-.08-4.48,2.57-3.42,5-3.66,3-.29,4.37.38,4.24,3.87C745.88,711.76,746.07,719.12,746.07,726.49Z"/><path class="cls-6" d="M383.92,716.85c0-1.7.08-3.4,0-5.1-.12-2,.31-3.21,2.74-3.1,4.15.19,8.34-.16,12.46.23,4.84.44,8.18,2.91,8.21,8.29s-3.23,7.78-8.05,8.52a42.87,42.87,0,0,1-6.22.23C383.92,726,383.92,725.94,383.92,716.85Z"/><path class="cls-7" d="M878.61,711c2.9,6.58,5.36,12.18,7.84,17.76.87,2,.24,2.69-1.87,2.66-4.67-.08-9.35,0-14.78,0C872.74,724.56,875.44,718.3,878.61,711Z"/><path class="cls-7" d="M319.58,710.81c3.26,7.63,5.9,13.82,8.71,20.38H311Z"/></svg>