<svg id="Capa_1" data-name="Capa 1" xmlns="http://www.w3.org/2000/svg" viewBox="0 0 1200 1095"><defs><style>.cls-1{fill:#007ec6;fill-rule:evenodd;}</style></defs><title>web</title><path class="cls-1" d="M287.43,562c2-6.56,6.56-10.5,11.15-9.19,3.94,1.32,5.91,7.22,4.6,13.78-2,5.91-6.57,10.5-11.16,9.19-3.94-1.31-5.9-7.22-4.59-13.78Zm24.28-82c-60.37-20.34-124,60.37-126,144.35C183.1,710.9,229,744.36,254,745c-34.77,15.09-38.71,29.53-39.36,54.46,41.33-45.27,97.11,24.28,120.73-64.3-21,13.12-30.19,14.44-48.56,10.5,42.65-13.78,83.33-56.43,88.58-122,5.25-62.34-4.59-114.17-52.49-123.36-42-8.53-74.14,65-72.18,100.39,1.32,35.43,11.16,54.46,30.19,55.77,19.68,1.32,42.65-35.43,43.3-69.55s-11.15-52.49-32.8-42.65c7.21-19,19-19.68,26.24-19.68,6.56,0,32.81,24.93,20.34,86-11.81,61.67-43.3,72.17-60.36,72.17-17.72-.66-45.28-15.75-44-71.52,1.32-49.87,23.63-128.6,77.43-127.29,5.25.66,5.25-2.63.66-3.94Zm248.67-13.78c13.78-3.28,22.31-16.4,19.69-29.52-3.28-13.13-16.41-21-30.18-17.72-13.13,3.28-22.31,17.06-19,30.18,2.62,13.13,16.4,20.34,29.52,17.06ZM926.51,529.8c-28.21-.66-33.46,38.71-21.65,55.77-45.28,53.8-34.78-39.37-33.47-51.83,30.84,3.28,66.28-26.91,72.18-82s-45.27-47.9-45.27-47.9c-21-.66-64.31,39.37-70.21,116.79-4.59,42-28.21,65.62-24.93,46.59l19-116.14c0-55.77-52.49-3.93-62.33,19.69-1.31-68.24-50.52-10.5-63,13.78l5.25-34.12-40.68,8.53-13.12,87.92c-17.06,63-34.78,70.86-32.81,54.46L647,396l-40.68,8.53-23,150.91c-17.06,63-36.09,86.61-33.46,60.36l21.65-136.47-40.68,9.18L519.05,562c-17.06,63-40.68,97.76-36.09,68.24l21-135.82-40,9.18-16.4,101.71c-17.06,63-28.87,55.77-26.25,39.36l21-136.47-40,9.18L374,695.15C370.76,722.7,384.54,724,387.16,724c15.09-.66,38.06-40,53.81-75.46l-5.25,32.81c-3.28,27.56,10.5,29.53,13.12,29.53,15.09-.66,48.55-63.65,63-103v.66l-9.19,57.74c-3.28,27.56,10.5,29.52,13.13,28.87,15.09-.66,45.27-60.37,61-95.8l-8.53,53.8c-2.63,26.91,10.5,28.87,13.12,28.87,15.09-.65,45.93-53.8,60.37-92.51L630.59,665l40-8.53,19-126.63c6.56-43.31,26.9-57.74,26.9-46.59L691,651.19l40-8.53,20.34-126c4.59-36.75,24.93-59.06,28.21-47.9l-21,137.79c-6.56,43.3,25.59,55.11,68.24-51.84,2.62,57.09,26.9,63.65,45.27,62.34,21.65-1.32,31.5-21,36.75-26.25,41.33,36.74,99.07-11.15,100.38-64.3.66-26.9-6.56-57.74-11.81-83.33l11.16-17.06c4.59-6.56,15.75-45.93-14.44-42.65-47.89,9.84-40.68,57.74-32.8,107.61l-24.28,40c-3.28-1.31-6.56-1.31-10.5-1.31ZM873.36,520l14.44-97.11c3.28-13.78,23-16.41,20.34-.66l-13.78,89.89c-2.63,16.41-23,19.69-21,7.88Zm89.24-19c7.22,45.27,13.12,87.27-23.62,94.48-7.88,2-23-.65-21.66-16.4,15.1.66,32.16-5.25,32.16-26.25.65-9.18-2-15.74-6.57-19l19.69-32.81ZM1002,393.32c13.78,2.63.65,32.15-5.25,38.06-3.28-20.34-4.6-34.78,5.25-38.06Z"/></svg>