<svg id="Capa_1" data-name="Capa 1" xmlns="http://www.w3.org/2000/svg" viewBox="0 0 1200 1095"><defs><style>.cls-1{fill:#02487f;}.cls-2{fill:#fefefe;}.cls-3{fill:#64b58c;}</style></defs><title>web</title><path class="cls-1" d="M647.29,214.25c.15,1.39,1.35,1,2.12,1.16a202.07,202.07,0,0,1,39.2,14.7,228.48,228.48,0,0,1,22,12.78c1.56,1,1.59,1.91.87,3.47A426.21,426.21,0,0,1,671,315.69c-10,14-20.8,27.34-33.3,39.2-8,7.62-16.56,14.6-27,18.87-8,3.27-15.66,2.63-23.33-1-8.71-4.08-16.18-9.92-23.13-16.42-15.29-14.3-28.13-30.65-40-47.85A434.52,434.52,0,0,1,491,251.23c-1.1-2.28-3.11-4.93-2.64-6.92.42-1.76,3.7-2.87,5.75-4.2a195.17,195.17,0,0,1,56.28-24.56c1-.25,2.23,0,2.69-1.3h1.65c.1,13.82,1,27.61,2.31,41.35,1.92,19.73,4.65,39.37,9.84,58.56,3.67,13.54,7.83,26.95,16.67,38.19,8.64,11,20.66,13.23,31.18,2.24,6-6.25,9.51-14,12.64-22,6.53-16.59,10-34,12.66-51.49,3.42-22.16,4.87-44.5,5.58-66.89Z"/><path class="cls-2" d="M645.64,214.25c-.71,22.39-2.16,44.73-5.58,66.89-2.7,17.52-6.13,34.9-12.66,51.49-3.13,7.93-6.67,15.71-12.64,22-10.52,11-22.54,8.76-31.18-2.24-8.84-11.24-13-24.65-16.67-38.19-5.19-19.19-7.92-38.83-9.84-58.56-1.34-13.74-2.21-27.53-2.31-41.35Z"/><path class="cls-1" d="M105.32,731.83c1.17,0,.86-1.05,1-1.62,3.77-16.79,17.08-29.29,34-31.31a38.45,38.45,0,0,1,28.63,7.86c2.06,1.56,3.67,3.45,2.44,6.33a4.85,4.85,0,0,1-4.84,3.34,5,5,0,0,1-3-1.23c-16.14-12.33-38.66-6.52-45.91,12.39a29,29,0,0,0,23,39.54,30.6,30.6,0,0,0,22.49-5.59c2.76-1.93,4.87-1.79,6.9.25s2,4.89-.3,7a33.45,33.45,0,0,1-16.85,8.09c-11.06,1.94-21.46.27-30.73-6.63-8.1-6-13.53-13.72-15.77-23.61-.17-.74.31-1.94-1.05-2.16Z"/><path class="cls-1" d="M568.49,407.39C568,415.34,565,422,561,428.17c-6.87,10.47-15.51,19.37-24.76,27.77-16.87,15.33-35.43,28.34-54.79,40.27a436.85,436.85,0,0,1-42.71,22.92c-1.62.77-2.5.49-3.48-1a200.28,200.28,0,0,1-27.76-62.23c-.54-2.12-.4-2.71,2-2.81,15.17-.65,30.31-1.42,45.42-3.11,16.64-1.86,33.16-4.33,49.38-8.47,13.4-3.41,26.56-7.56,38.12-15.49,5.38-3.7,9.82-8.2,11.26-14.93,1.4-6.53-1-11.87-5.31-16.5-5.93-6.36-13.53-10.19-21.45-13.38-17.24-6.93-35.31-10.53-53.59-13.39-15.73-2.46-31.57-3.7-47.43-4.85-5.47-.4-11-.55-16.47-.56-2.14,0-2.58-.41-2-2.54a203.19,203.19,0,0,1,10.37-30.62,200.7,200.7,0,0,1,17.62-32.15c.91-1.36,1.49-1.55,3-.87a426.24,426.24,0,0,1,76.27,45.44,237.73,237.73,0,0,1,34.46,30.49c7.39,8.09,14.27,16.62,17.8,27.3A45.78,45.78,0,0,1,568.49,407.39Z"/><path class="cls-1" d="M600.42,438.35c7.27.53,13.93,3.44,20.13,7.5,10.63,7,19.63,15.75,28.14,25.13,12.86,14.17,24,29.57,34.41,45.6a381.17,381.17,0,0,1,20.53,35.55c2.66,5.3,5.23,10.66,7.92,16,.79,1.57.57,2.49-.95,3.49a202.44,202.44,0,0,1-62.55,27.81c-1.94.49-2.4.26-2.51-1.84-.66-13.42-1.24-26.84-2.58-40.23-1.82-18.39-4.46-36.62-9-54.54-3.19-12.7-7.15-25.15-14.24-36.34-2.91-4.59-6.26-8.79-11.16-11.44a17.82,17.82,0,0,0-21,2.9c-6.84,6.43-11,14.51-14.37,23.09-6.64,17-10.23,34.66-13,52.6-2,12.75-3.25,25.55-4.26,38.39-.67,8.57-.87,17.17-1.15,25.77-.06,1.72-.34,2.23-2.13,1.77a198.42,198.42,0,0,1-50.45-20.27c-4.27-2.47-8.38-5.17-12.59-7.73-1.33-.82-1.75-1.5-1-3.17A423.53,423.53,0,0,1,517,516.77a348.05,348.05,0,0,1,30.52-41.36c10-11.53,20.63-22.58,33.87-30.61C587.19,441.31,593.29,438.67,600.42,438.35Z"/><path class="cls-3" d="M792.17,362.31c-5,.18-9.75.28-14.48.5-10,.47-20,1.29-29.92,2.23-8.94.84-17.84,1.92-26.69,3.4-20.11,3.38-40,7.49-58.31,17.07-6,3.15-11.41,7-15.09,13-4.66,7.51-2.91,16.14,2.53,22.05,6.81,7.42,15.69,11.54,24.91,15,13.24,5,27,8.16,40.88,10.54,9,1.54,18,2.91,27.15,3.85,8.77.9,17.53,1.76,26.34,2.22,7,.36,14,.85,21,1,1.44,0,1.51.36,1.18,1.73a187,187,0,0,1-10.89,32,203.85,203.85,0,0,1-16.68,30.44c-1.13,1.71-2.18,2.19-3.93,1.32-7.55-3.78-15.21-7.36-22.63-11.38-10.17-5.52-20.1-11.48-29.83-17.76-8.52-5.5-16.77-11.36-24.84-17.49q-10-7.59-19.3-15.94c-11.2-10-21.46-20.82-28.61-34.2a32.51,32.51,0,0,1-4.09-13.67c-.2-4.32,1.21-8.55,3-12.54,3.41-7.5,8.33-14,13.61-20.22,3.62-4.27,7.61-8.17,11.61-12a279.41,279.41,0,0,1,23.61-20,413.57,413.57,0,0,1,44-29.32,365,365,0,0,1,33.78-17.54c1.67-.76,2.55-.35,3.42,1,12.82,19.64,22.51,40.64,27.89,63.54C791.89,361.41,792,361.66,792.17,362.31Z"/><path class="cls-1" d="M369.18,738.44c0,11-.06,22,0,33,0,2.78-.68,5-3.41,5.9s-4.54-.33-6.29-2.61c-12-15.51-24.09-30.9-36.16-46.34-1.91-2.44-3.77-4.92-5.7-7.35-.41-.51-.58-1.62-1.54-1.23s-.37,1.31-.38,2q0,24.78,0,49.54a6.27,6.27,0,0,1-.5,3.21c-1.28,2.28-3.73,3.63-6,2.89a5,5,0,0,1-3.79-5.11q0-34.12,0-68.25a5,5,0,0,1,3.19-5,4.54,4.54,0,0,1,5.66,1.54c4.37,5.48,8.75,11,13.06,16.5q13.08,16.82,26.11,33.69c1.17,1.51,2.29,3.07,3.5,4.55.44.54.91,1.4,1.72,1.15s.46-1.27.46-1.92q0-23.52,0-47.05c0-1.29,0-2.57,0-3.86.09-3.09,2-5,5-4.94a4.73,4.73,0,0,1,5,5C369.2,715.32,369.18,726.88,369.18,738.44Z"/><path class="cls-1" d="M837.37,777.56c-20.72.76-39.72-17.16-39.76-39.35s18.91-39.62,39.69-39.6c21,0,39.76,17.93,39.65,39.66C876.83,760.2,858.21,778.16,837.37,777.56ZM808,738.25c-.49,15.25,12.46,29.25,29.28,29.22A29.33,29.33,0,1,0,808,738.25Z"/><path class="cls-1" d="M954.59,738.19c-1.09-20.94,18.65-39.71,39.51-39.64,20.69.07,39.87,18.73,39.54,40.15-.3,20.13-18.31,39.08-39.77,39C972.79,777.7,953.59,758.94,954.59,738.19Zm68.77-.06a29.36,29.36,0,1,0-29.25,29.35A29.42,29.42,0,0,0,1023.36,738.13Z"/><path class="cls-1" d="M618.61,738V705c0-4.6,1.68-6.36,6.26-6.25,7.14.16,14.31-.66,21.4.56,9,1.54,16.24,6.09,22.3,12.84a38.87,38.87,0,0,1,1.5,50.29c-6.53,8.19-14.88,13.48-25.38,14.74-7.29.88-14.65.42-22,.2-2.66-.07-4.09-2.35-4.1-5.54Q618.59,755,618.61,738Zm10,.07c0,9,0,18,0,26.94,0,1.08-.52,2.55,1.51,2.52,5.11-.07,10.23.23,15.31-.77,12.31-2.44,23.07-14.87,22.92-28.73-.14-13.19-9.55-24.85-21.22-28.12-5.28-1.48-10.7-1.09-16.08-1.22-1.9,0-2.52.48-2.5,2.45C628.68,720.14,628.62,729.13,628.62,738.1Z"/><path class="cls-1" d="M699.06,737.88q0-16.25,0-32.48c0-4.87,1.78-6.65,6.58-6.65h43.78c3.65,0,5.86,1.92,5.82,5s-2.22,4.94-5.92,4.94c-12.39,0-24.78.07-37.17-.05-2.24,0-2.71.67-2.67,2.76.13,6.42.12,12.84,0,19.26,0,1.8.46,2.29,2.26,2.27,8.44-.1,16.89,0,25.33-.05a6.8,6.8,0,0,1,4,.75c2,1.34,3.24,3.17,2.53,5.61a4.91,4.91,0,0,1-5,3.88h-16c-3.67,0-7.35.05-11,0-1.43,0-2.13.19-2.11,1.89.09,6.88.12,13.76,0,20.64,0,2,1,1.93,2.36,1.92q19.13,0,38.27,0a4.83,4.83,0,0,1,5,4.08,5.08,5.08,0,0,1-2.77,5.47,5.27,5.27,0,0,1-2.94.41q-22.16,0-44.32,0c-4,0-6-2-6.06-6.11C699,760.26,699.06,749.07,699.06,737.88Z"/><path class="cls-1" d="M576,772.1a5.5,5.5,0,0,1-4,5.42,5.25,5.25,0,0,1-5.85-3.52c-2.74-6.89-5.47-13.77-8.06-20.71-.61-1.65-1.36-2.26-3.14-2.23-7.15.1-14.32.07-21.48,0-1.53,0-2.36.28-3,1.94-2.6,7-5.43,14-8.2,21-.93,2.36-2.55,3.72-5.23,3.61-2.36-.09-3.58-1.51-4.43-3.47-.64-1.5-.11-2.91.41-4.26q13-33.5,26.1-67c.94-2.39,2.29-4.1,5.16-4.13s4.05,1.72,4.93,4q8.91,22.89,17.8,45.77,4.13,10.6,8.25,21.23C575.61,770.63,575.86,771.6,576,772.1Zm-40.62-31.47c5.39,0,10.34-.06,15.29,0,1.87,0,2.19-.47,1.5-2.19-2.44-6.08-4.76-12.2-7.13-18.31-.19-.47-.24-1.13-1.3-1.07Z"/><path class="cls-1" d="M429.59,741.41c-.28-22.78,15.26-40.57,34.77-42.55,10.79-1.1,20.71,1.51,29.23,8.54,2.37,2,2.91,4.48,1.29,6.69-1.89,2.58-4.7,3.21-7.17,1.24a29.68,29.68,0,0,0-16-6.42c-15.3-1.51-29.06,9.37-31.49,23.67-1.75,10.29.83,19.28,8.22,26.63a29.51,29.51,0,0,0,37.06,3.37,26.91,26.91,0,0,1,2.74-1.8,5,5,0,0,1,6.47,1.86,4.72,4.72,0,0,1-1.09,6.33,36.58,36.58,0,0,1-20.47,8.49c-10.06.87-19.41-1.24-27.56-7.64C435.31,761.77,429.5,751.54,429.59,741.41Z"/><path class="cls-1" d="M1071.36,777.63c-9.47-.13-16.3-3.77-21.26-10.85-1.92-2.74-1.46-5.42,1-7.12s5.2-1.3,7.11,1.49a14.66,14.66,0,0,0,10.72,6.33c7.3,1,14.36-4.86,15.24-12.58a13.71,13.71,0,0,0-12-15.36c-11.79-1.2-19.94-9.91-19.48-21.41.34-8.57,5.06-14.51,12.79-17.94a19.56,19.56,0,0,1,21.16,3.93,21.41,21.41,0,0,1,3.6,4.11c1.49,2.51,1.28,5.41-.63,7-2.22,1.84-4.87,1.68-7-.78s-4-4.84-7.52-5.47c-5.14-.92-10.89,2.65-12,7.68-1.28,5.91,2.13,11.55,7.87,12.39s10.77,2.43,15.14,6.36c8.58,7.72,11.28,19.5,5.28,29.72C1086.84,773,1079.88,777.34,1071.36,777.63Z"/><path class="cls-1" d="M923.78,729.12q0-12.25,0-24.5c0-3.68,1.86-5.8,5-5.86,3-.06,5.18,2.08,5.16,5.55-.1,17.42.76,34.86-.39,52.25-.69,10.49-10.11,19.84-21.12,20.91-13.73,1.34-25.1-8-26.91-21.67-.06-.45-.09-.91-.11-1.36-.09-3.57,1.87-6,4.87-6.1s5.24,2.29,5.37,5.7a13.23,13.23,0,0,0,7.73,12,14,14,0,0,0,20.35-12.43C923.83,745.45,923.78,737.28,923.78,729.12Z"/><path class="cls-1" d="M193.12,737.88q0-16.65,0-33.31a5.49,5.49,0,0,1,3.06-5.39,4.79,4.79,0,0,1,5.18.63c1.72,1.25,2,3.08,2,5.1,0,19.91,0,39.82-.08,59.73,0,2.46.62,3,3,3,11.1-.14,22.21-.07,33.31-.06,3.64,0,5.58,1.71,5.61,4.88,0,3.35-1.88,5.1-5.68,5.1q-20.23,0-40.47,0c-4.07,0-6-1.94-6-6.1Q193.11,754.66,193.12,737.88Z"/><path class="cls-1" d="M279.37,738.14v33.28c0,3.88-1.84,6.08-5.09,6.14s-5.15-2.29-5.15-6.1q0-33.29,0-66.57c0-3.83,2-6.18,5.11-6.13s5.12,2.24,5.13,6.1Z"/><path class="cls-1" d="M396.1,738.17q0-16.78,0-33.58c0-3.82,1.7-5.82,4.94-5.84s5,2.12,5,5.83q0,33.57,0,67.14c0,3.72-1.85,5.85-5,5.84s-5-2-5-5.82Q396.08,755,396.1,738.17Z"/><path class="cls-1" d="M470.49,880.49c-10.93.41-20.69-10.17-20.44-20.68a20.86,20.86,0,0,1,20.86-20.62c11.06,0,20.5,9.65,20.53,20.77C491.47,870.45,481.8,881.05,470.49,880.49Zm.22-5.46A14.78,14.78,0,0,0,486,859.83c0-8.73-6.49-15.17-15.29-15.17a15.19,15.19,0,1,0,0,30.37Z"/><path class="cls-1" d="M671.06,880.49c-11.15.47-20.9-10.48-20.55-20.85.37-11.12,9.4-20.46,20.51-20.45a21.08,21.08,0,0,1,20.9,20.69C692,870.54,682.17,881,671.06,880.49Zm.13-5.46a14.81,14.81,0,0,0,15.25-15.21c0-8.71-6.53-15.17-15.32-15.16a15.19,15.19,0,1,0,.07,30.37Z"/><path class="cls-1" d="M725.5,859.79c0-5.49,0-11,0-16.49,0-3.24.84-4.19,4-4.07,4,.15,8.21-.88,12,1.6,4.91,3.19,6.69,9,3.81,14-.9,1.55-.76,2.11.6,3.23,3.61,3,5.5,6.86,4.71,11.61a12.35,12.35,0,0,1-9.37,10.44c-4.42,1.07-9.3.48-13.95.23-1.6-.08-1.84-2-1.84-3.53C725.49,871.15,725.5,865.47,725.5,859.79Zm5.64,8c.06,2.34-1.2,5.35.29,6.86s4.34.37,6.61.39c4.36,0,7.31-2.87,7.33-7.08a6.89,6.89,0,0,0-7.2-7.27c-2.34,0-5.46-1.06-6.8.48C730.25,862.44,731.14,865.49,731.14,867.76Zm-.17-18v4.12c0,.65,0,1.35.93,1.31,1.91-.09,3.85.32,5.73-.25a5.38,5.38,0,0,0,3.8-5.67,5.22,5.22,0,0,0-5.29-4.56C731,844.51,731,844.51,731,849.71Z"/><path class="cls-1" d="M585.6,859.9c0-5.5,0-11,0-16.5,0-3.36.91-4.23,4.26-4.2,4.92,0,9.9-.54,14.57,1.74,7.81,3.82,12.42,9.94,12.48,18.7s-4.45,15.06-12.34,19.09c-5.52,2.81-11.3,1.57-17,1.62-2,0-2-2.35-2-4C585.56,870.9,585.6,865.4,585.6,859.9Zm5.47-.17v9.62c0,5.7,0,5.69,5.65,5.68,6.12,0,10.5-3,13.23-8.24a14.43,14.43,0,0,0-.84-15.35,16.5,16.5,0,0,0-17.13-6.8c-1.31.31-.89,1.2-.89,1.9C591.05,850.94,591.07,855.33,591.07,859.73Z"/><path class="cls-1" d="M525,859.77c0-5.41,0-10.81,0-16.22,0-3.61.8-4.34,4.36-4.36h7.7A13.1,13.1,0,0,1,549.7,848c1.72,4.9,0,10.32-4.58,13.86-1.36,1-1.48,1.58-.54,3,2.41,3.63,4.52,7.48,6.92,11.12,1.21,1.84.65,3.34-.77,4.24s-2.69.11-3.6-1.4c-2.25-3.76-4.76-7.38-6.9-11.21-1.3-2.32-2.78-3.39-5.59-3.18-4.14.3-4.16.07-4.16,4.21v7.7c0,2-.1,4.13-2.81,4.07S525,878.2,525,876.27C525,870.77,525,865.27,525,859.77Zm11.16-15.11c-5.69,0-5.69,0-5.69,5,0,.73,0,1.46,0,2.19.15,2.35-1,5.55.5,6.8s4.53.43,6.89.4a6.79,6.79,0,0,0,6.66-4.78,7.16,7.16,0,0,0-1.9-7.78C540.54,844.44,538,844.59,536.17,844.66Z"/><path class="cls-1" d="M817.28,877.78c-.19,1.12-.38,2.35-1.77,2.67a2.6,2.6,0,0,1-3.31-1.66c-1.2-3.06-2.51-6.08-3.52-9.2-.72-2.21-1.77-3.32-4.27-3a38.78,38.78,0,0,1-5.5,0c-4.95,0-4.95,0-6.8,4.73-.89,2.29-1.86,4.56-2.67,6.88-.67,1.92-2.07,2.81-3.78,2.07s-1.71-2.3-1.06-4q6.82-17.49,13.55-35a2.91,2.91,0,0,1,2.6-2.13c1.52-.06,2.16,1.18,2.63,2.4q4.93,12.65,9.84,25.29c1.2,3.06,2.42,6.12,3.61,9.18C817,876.63,817.12,877.18,817.28,877.78ZM800.73,849.3c-1.64,4.25-3.07,7.92-4.58,11.8h9.12Z"/><path class="cls-1" d="M403.76,880.49c-10.24.33-19.23-8.68-20.26-17.69-1.3-11.29,5.74-21,16.4-23.15,6-1.22,11.22.29,16.13,3.54,1.42.93,2.38,2.25,1.3,3.93-1.2,1.86-2.75,1.23-4.25.22-6.43-4.31-14.17-3.92-19.44,1a15.39,15.39,0,0,0-3.11,19.44c4.13,7.3,14.69,9.83,21.82,5.22a11,11,0,0,1,1.33-.94c1.38-.64,2.68-.62,3.58.84s.25,2.4-.84,3.34C413.49,878.74,408.34,880.49,403.76,880.49Z"/><path class="cls-1" d="M271.09,694.41a4.32,4.32,0,0,1-4.6-2.81,4.68,4.68,0,0,1,.75-5.37c3.19-3.27,6.38-6.55,9.71-9.69,2.51-2.37,5.08-2.28,7.18,0s1.94,5-.31,7.31c-2.88,2.94-5.8,5.84-8.73,8.73C274,693.63,272.79,694.63,271.09,694.41Z"/><path class="cls-1" d="M476.31,829.32a2.34,2.34,0,0,1-.82,1.68c-1.76,1.75-3.54,3.47-5.27,5.25-1.1,1.14-2.18.82-3.14,0s-1.36-2.06-.34-3.14c1.89-2,3.85-3.94,5.85-5.83a1.74,1.74,0,0,1,2.29-.14A2.7,2.7,0,0,1,476.31,829.32Z"/></svg>