<svg id="Capa_1" data-name="Capa 1" xmlns="http://www.w3.org/2000/svg" viewBox="0 0 1200 1095"><defs><style>.cls-1{fill:#e20613;}.cls-1,.cls-2,.cls-3{fill-rule:evenodd;}.cls-2{fill:#0067b0;}.cls-3{fill:#ffcd00;}</style></defs><title>web</title><path class="cls-1" d="M330.15,647.27l14.06-.83,25.65-.2,20.67,1v1.65c-19.24,0-105.64,2-110.81,9.44l119.9-4.48h33.09c21,0,117.39,2.8,123.22,10.76l0,.87-105-5.84H427.74c-6.28,0-19,.75-21.5,4.14,6,2.86,42.43,0,52.94.82,15.22,1.14,35.49,3.2,50.42,3.34,15.25.14,33.91,3.34,48.74,5,11.66,1.3,36.46,5.61,36.46,18.12v.83c0,17.35-37.09,35.51-38.87,42.18,5-.42,3.15-2.18,7.63-1.83s5.42-1.16,8.36-2.87c1.6-.93,13.79-9.66,13.79-5.23,0,3-4.14,6.62-4.14,10.75v.83c0,10.46,35.66,11.58,48.79,11.58h5c14.72,0,28.25-3.64,39.21-7.93,14.42-5.64,21.81-21.74,25.29-22.67.57,1,.83.88.83,2.48,0,6.9-11.95,15-13.23,19.85,0,0,1.54.83,1.65.83,15,0,37.22-21.79,37.22-38.87v-4.14c0-47.84-176.36-58.72-238.18-58.72H442.63c-19.39,0-107,1.62-112.48,9.1Z"/><path class="cls-2" d="M761.86,607.57h33.08l.34-49.08,41.84,49.08,41.65-.25L832.16,553c21-4.9,42.18-14.82,42.18-40.53,0-46.82-39.85-52.1-76.92-52.1H761.86V607.57Zm33.08-79.39h20.68c12.51,0,25.64-6.22,25.64-19,0-11.64-13.88-19-25.64-19H794.94v38Z"/><path class="cls-2" d="M963.66,607.57h33.08V517.43c3.19,2.13,30.57,38.74,35.22,45,3.81,5.13,33.44,45.14,35.9,45.14h29V460.36h-33.08V553c-8.11-9.33-67.57-92.63-71.13-92.63H963.66V607.57Z"/><path class="cls-3" d="M614.65,641.48c19.59,0,51.75,5.33,70.47,8.1,17.65,2.6,57.36,4.64,64.34,15.06-10.49,0-58.71-12-62-7.45,20.24,4.72,62,12.12,62,34.74,0,10.59-13.41,16.9-13.74,25.37l7.12-3.87c-.34,4.06-1.65,3-1.65,6.62v1.65c0,12.24,25,14.89,38.87,14.89h3.3c12.13,0,31.33-3.46,40-7.18,6.39-2.75,10.26-4.57,14.82-9.16,3.22-3.23,9.23-12.47,10.55-13.44-.32,3.88-1.65,4.09-1.65,8.27,0,1.6,1.47,3.31,2.48,3.31,6.78,0,17.36-19,17.36-27.29v-6.61c0-48.51-190-43.84-252.24-43.84v.83Z"/><polygon class="cls-2" points="481.5 607.57 565.03 607.57 565.03 577.8 515.41 577.8 515.41 460.36 481.5 460.36 481.5 607.57 481.5 607.57"/><path class="cls-2" d="M321.88,675.39c25.28,0,52,2.38,76.95,3.27,8.86.32,26.56,2.91,36.17,4.36,5.63.84,11.76.77,17.22,2.62,7.36,2.51,6.48,7.42,12.74,7.94V691.1c0-3.49-2-.62-2.48-5.79,3,.8,5,2.89,5,6.62v3.31c0,5.87-12.71,7.76-13.2,14l3.28.93c-.54,6.47-7.45,3.92-7.45,9.93,0,8.2,16.1,12.4,24.81,12.4h8.27c11.17,0,26.39-5.58,32.29-2.47l-.86,4.13c13.81,0,52.1-20.56,52.1-32.26v-2.48c0-22.45-106.61-27.29-138.11-27.29H369.85c-10,0-43.1-.07-48,3.31Z"/><polygon class="cls-2" points="897.49 607.57 930.58 607.57 930.58 495.92 897.49 495.92 897.49 607.57 897.49 607.57"/><path class="cls-2" d="M897.49,487.65l33.66-.11L943,461.19H911.55c-2.64,0-12.22,23-14.06,26.46Z"/><path class="cls-2" d="M374.4,457.66c48.86,0,88.48,34.24,88.48,76.46s-39.62,76.45-88.48,76.45-88.48-34.24-88.48-76.45,39.62-76.46,88.48-76.46Zm0,30.58c29.32,0,53.09,20.55,53.09,45.88S403.72,580,374.4,580s-53.09-20.54-53.09-45.87,23.78-45.88,53.09-45.88Z"/><path class="cls-2" d="M191.67,457.66c40.14,0,74,23.11,84.86,54.76h-35c-11-14.13-30.45-24.18-49.82-24.18-29.31,0-55,21.22-55,46.55s25.73,45.2,55,45.2c21.44,0,43-9.67,53-24.77h32c-10.61,32-44.68,55.35-85.07,55.35-48.85,0-88.48-34.24-88.48-76.45s39.63-76.46,88.48-76.46Z"/><path class="cls-2" d="M659.23,457.66c48.86,0,88.48,34.24,88.48,76.46s-39.62,76.45-88.48,76.45-88.48-34.24-88.48-76.45,39.62-76.46,88.48-76.46Zm0,30.58c29.32,0,53.09,20.55,53.09,45.88S688.55,580,659.23,580s-53.09-20.54-53.09-45.87,23.78-45.88,53.09-45.88Z"/></svg>