<svg id="Capa_1" data-name="Capa 1" xmlns="http://www.w3.org/2000/svg" viewBox="0 0 1200 1095"><defs><style>.cls-1{fill:#030303;}.cls-2{fill:#2a2a2a;}.cls-3{fill:#414141;}.cls-4{fill:#232323;}.cls-5{fill:#6e6e6e;}.cls-6{fill:#858585;}.cls-7{fill:#b1b1b1;}.cls-8{fill:#dcdcdc;}.cls-9{fill:#8d8d8d;}.cls-10{fill:#f2f2f2;}.cls-11{fill:#bfbfbf;}.cls-12{fill:#fefefe;}.cls-13{fill:#606060;}.cls-14{fill:#fdfdfd;}.cls-15{fill:#080808;}.cls-16{fill:#f3f3f3;}</style></defs><title>web</title><path d="M505.51,552.43c-14.3,37.19-28.39,73.73-42.32,110.33-1.18,3.1-2.62,4.09-5.92,4.07-23.95-.15-47.9-.08-72.4-.08,3.44-9,6.72-17.62,10-26.22Q427.52,555.68,460,470.77c1.26-3.29,2.74-4.37,6.24-4.33,18.56.18,37.12.15,55.68,0a6.44,6.44,0,0,1,6,3.09q34.85,48.87,69.93,97.58a32.24,32.24,0,0,1,6.27,14.36c1.54-4,3.1-7.9,4.62-11.87q19-49.46,37.88-98.94c1.11-2.93,2.33-4.3,5.83-4.27,22.74.21,45.47.16,68.21.06,3.15,0,4,.35,2.67,3.69Q689.61,557.79,656,645.51c-.43,1.12-1,2.17-1.66,3.47,2.25.58,3-1.37,4-2.45q38.85-42.1,77.6-84.28,42.71-46.43,85.36-92.9a8.28,8.28,0,0,1,6.81-2.89c23.51.11,47,.16,70.53,0,3.72,0,4.6,1.42,5.12,4.55q15.72,96,31.61,192c.5,3-.12,3.89-3.34,3.87q-38.5-.2-77,0c-3.26,0-4.06-1-4.32-4.07-.89-10.31-2.21-20.59-3.1-30.9-.23-2.67-1.15-3.22-3.62-3.21q-42,.12-84,0a6,6,0,0,0-5,2.48c-9.24,10.81-18.63,21.5-27.83,32.34a8.26,8.26,0,0,1-7,3.36q-66.35-.17-132.7,0a7,7,0,0,1-6.41-3.31Q545.7,614.38,510.2,565.4C507.44,561.6,506.61,557.36,505.51,552.43Z"/><path d="M433.39,466.52c-5.21,13.75-10.23,27-15.23,40.24-.93,2.45-3,1.74-4.73,1.74-29.39,0-58.77.14-88.16-.1-4.5,0-6.46,1.38-7.88,5.48-3,8.73-6.43,17.35-10,25.88-1.48,3.56-1.23,4.54,3,4.51,28.3-.16,56.61-.08,84.91-.08h3.83c-1.13,3.13-2.09,5.94-3.15,8.72-3.6,9.36-7.36,18.65-10.77,28.08-1.1,3.06-2.49,4.17-5.89,4.15-28-.16-56,0-84-.21-4.5,0-6.33,1.4-7.76,5.52-3.93,11.33-8.4,22.48-12.84,34.2H375c-1.19,3.21-2.15,5.85-3.15,8.48-3.84,10.09-7.8,20.14-11.47,30.29-1,2.65-2.27,3.39-5,3.39q-85.62-.12-171.22.05c-5.23,0-3.26-2.23-2.36-4.57q33.5-87.24,67-174.48c2.21-5.76,4.62-11.45,6.55-17.3,1.05-3.21,2.71-4.07,6-4.06q79.81.15,159.62.07Z"/><path d="M333.17,445.25c46.78-9.47,93.73-18.08,140.77-26.18Q538.35,408,603.09,399c32.46-4.45,65-8,97.62-11.46,30.43-3.21,60.79-7.08,91.18-10.67a6.7,6.7,0,0,1,1.37-.21c11.29,1.16,18-4.88,23.66-13.84,6.06-9.49,13.43-18.12,20-27.31,1.82-2.56,2.92-2.6,5.34-.87,14.82,10.62,29.81,21,44.62,31.65a12.4,12.4,0,0,0,8.55,2.38q49.8-2.66,99.61-5.1a14.39,14.39,0,0,1,2,.31c-9.06,6.26-17.49,12.11-25.95,17.93C959,390.13,947,398.54,934.73,406.66c-3.16,2.1-3.73,3.15-.82,6.2q41.46,43.45,82.61,87.22c.84.88,1.66,1.77,2.81,3-2.25.5-3.57-.64-5-1.23q-73.12-30.31-146.2-60.77c-3-1.26-5.2-1.19-8,.51q-41.65,25.13-83.48,50l-2.7,1.56c1.77-8.18,3.38-15.73,5-23.27,3.59-16.28,7.08-32.58,10.92-48.8.91-3.85.41-4.78-3.74-4.91-43.77-1.35-87.53-1.1-131.29.25q-89.05,2.78-177.71,11.69c-46,4.64-91.81,10.46-137.45,17.78-.91.15-1.85.13-2.77.19C335.59,446.27,334,447.36,333.17,445.25Z"/><path class="cls-1" d="M979.19,668.64a21,21,0,0,1-21-21.35,21.42,21.42,0,1,1,42.84.42C1000.81,659.82,991.48,668.75,979.19,668.64Z"/><path class="cls-2" d="M333.17,445.25c1.08,1.13,2.59.23,3.79.8-2.72,1.19-5.68,1.13-8.54,1.61-.64-.53-1.73,0-2.19-1C328.43,445.68,330.82,445.58,333.17,445.25Z"/><path class="cls-3" d="M319.41,449.43l-7.39,1C314.32,448.54,316.74,447.78,319.41,449.43Z"/><path class="cls-4" d="M326.23,446.7l2.19,1c-2.11.14-4.15,1.43-6.79.56C323.06,446.51,324.73,446.87,326.23,446.7Z"/><path class="cls-5" d="M303.51,450.85c1.9-.15,3.8-1.31,6.29-.39-1.66,1.54-3.05,1-4.29,1.22C304.68,451.8,303.57,452.6,303.51,450.85Z"/><path class="cls-6" d="M303.51,450.85l2,.83c-1.73,1-3.66.88-5.55.93-.84.36-1.21.08-1.12-.82Z"/><path class="cls-7" d="M295.17,453.52c-1.65,1.37-3.8.63-5.61,1.31-.62-.41-.62-.83,0-1.28l4.73-.87A1.45,1.45,0,0,1,295.17,453.52Z"/><path class="cls-8" d="M285.76,455.27c-1.31,1.52-3.08.69-4.64.91-.24-.21-.31-.42-.23-.62s.16-.31.24-.31l4.68-.87c.3.22.39.42.27.61S285.87,455.27,285.76,455.27Z"/><path class="cls-9" d="M295.17,453.52l-.92-.84,4.59-.9,1.12.83C298.52,453.72,296.8,453.37,295.17,453.52Z"/><path class="cls-10" d="M281.13,455.25c0,.31,0,.62,0,.93a2,2,0,0,1-3.07.35C278.65,455,280,455.33,281.13,455.25Z"/><path class="cls-11" d="M285.76,455.27a8.85,8.85,0,0,1,.05-.89l3.71-.83c0,.43,0,.86,0,1.28Z"/><path class="cls-12" d="M841.86,526.74c-2.18,17.63.7,35.15,1.31,52.72.4,11.59.86,11.58-10.69,11.58H790c-.43-1.67.69-2.27,1.31-3,12-14.72,24-29.46,36.14-44.08A138.94,138.94,0,0,0,840.89,524C843.26,524.2,841.87,525.71,841.86,526.74Z"/><path class="cls-13" d="M841.86,526.74c-.55-.83.32-2.16-1-2.72.09-.67.58-1.3,1.09-.82C843.17,524.3,842.56,525.57,841.86,526.74Z"/><path class="cls-14" d="M979.43,665.15a17.78,17.78,0,1,1,18.06-17.31A17.75,17.75,0,0,1,979.43,665.15Z"/><path class="cls-15" d="M982.43,649.16a38.09,38.09,0,0,1,6.84,9.81c-2.82.91-4.58.31-5.76-2.36a27.3,27.3,0,0,0-3.54-5.42,4.39,4.39,0,0,0-5-1.55c-1.6.57-.76,2.44-.88,3.74a25.52,25.52,0,0,0,0,3.71c.08,1.48-.34,2.32-2.05,2.26-1.43-.05-1.83-.72-1.83-2,0-6.34.06-12.68,0-19,0-2,1-2.27,2.61-2.22,2.32.07,4.64,0,7,0,3.82,0,7.28.84,8.19,5.18C988.8,645.37,986.21,647.53,982.43,649.16Z"/><path class="cls-16" d="M976.64,646.44c-1.76.38-2.61-.72-2.72-3.57-.14-3.29,1.24-4,4-3.69s6.23-.28,6.09,3.69S980.31,646.06,976.64,646.44Z"/><polygon class="cls-4" points="324.43 448.53 308.21 451.42 307.55 450.12 323.84 446.9 324.43 448.53"/></svg>