<svg id="Capa_1" data-name="Capa 1" xmlns="http://www.w3.org/2000/svg" xmlns:xlink="http://www.w3.org/1999/xlink" viewBox="0 0 1200 1095"><defs><style>.cls-1{fill:none;}.cls-2{fill:#1d1d1b;}.cls-3{fill:#ff6b00;}.cls-4{clip-path:url(#clip-path);}.cls-5{fill:#ea0029;}.cls-6{clip-path:url(#clip-path-2);}.cls-7{clip-path:url(#clip-path-3);}</style><clipPath id="clip-path"><polygon class="cls-1" points="603.03 475.64 607.81 463.53 588.82 470.76 578.94 474.62 562.23 500.05 598.91 486.04 603.03 475.64"/></clipPath><clipPath id="clip-path-2"><polygon class="cls-1" points="685.7 409.43 653.06 448.85 670.34 442.87 683.29 438.38 725.59 390.63 691.97 401.45 685.7 409.43"/></clipPath><clipPath id="clip-path-3"><polygon class="cls-1" points="695.15 427.64 685.17 437.79 571.51 555.06 560.62 565.82 540.82 615.86 737.66 412.93 695.15 427.64"/></clipPath></defs><title>web</title><path class="cls-2" d="M681.18,482.55l-73.32,75.19h68.21V615.5c-15.67,6.64-25.88,9-42.11,9-26.41,0-50.24-8.35-68.83-22.87l-43.68,43.56,24.26-62.49c-14.65-20.2-24.33-48.74-24.33-78,0-63.77,43.33-110.7,102.93-110.7,14.81,0,28.4,2.12,41.62,7.08l84.5-27.47L720.68,411,766,394.69l-29.47,30.22-3.7,3.81h40.29V293.66H709.39v20C684,303.85,656,299,624.91,299,498,299,406.48,387.43,406.48,511.43c0,120.32,87.87,204,214.2,204,59.57,0,113.15-16.27,159.47-48.14l0-184.72Z"/><polygon class="cls-3" points="613.42 433.37 702.92 403.75 670.34 442.87 705.52 430.77 562.23 578.48 603.03 475.64 579.72 484.54 613.42 433.37"/><path class="cls-3" d="M553.29,592.31l44.07-111.06-25.77,9.84,39.77-60.45,1.06-.31,100.13-33.17-32.41,38.93,37.13-12.75ZM608.68,470l-37.51,94.63L693.91,438.17l-33.42,11.49,32.78-39.33-77.8,25.73L587.89,478Z"/><g class="cls-4"><polygon class="cls-5" points="607.81 463.53 588.82 470.76 579.72 484.54 603.03 475.64 607.81 463.53"/><path class="cls-5" d="M571.59,491.09l15.12-23L613.44,458l-8,20.14Zm19.33-17.7-3,4.58,12.66-4.82,1.6-4Z"/></g><g class="cls-6"><polygon class="cls-5" points="653.06 448.85 670.34 442.87 702.92 403.75 685.7 409.43 653.06 448.85"/><path class="cls-5" d="M643.21,455.67l40.61-49,28.73-9.52-40.33,48.49Zm44.37-43.51-24.77,29.92,5.65-1.9,24.81-29.85Z"/></g><g class="cls-7"><polygon class="cls-5" points="571.51 555.08 685.17 437.79 705.52 430.77 562.23 578.48 571.51 555.08"/><path class="cls-5" d="M553.35,592.29l15.38-39L683.36,435l33.91-11.64Zm20.9-35.44-3.08,7.82,122.74-126.5L687,440.55Z"/></g><path class="cls-2" d="M540.82,615.86C547.22,599.55,591.1,489,591.1,489l-28.94,11.05L609.54,428,729.6,388.16,697.37,427l40.29-14.07L540.82,615.86m38.9-131.32,23.31-8.9-40.8,102.84L705.52,430.77l-35.18,12.1,32.58-39.12-89.5,29.62Z"/><path class="cls-2" d="M791.24,306.44a7.8,7.8,0,0,1-5.58,2.34,7.92,7.92,0,0,1,0-15.83,7.77,7.77,0,0,1,5.58,2.31,7.94,7.94,0,0,1,0,11.18ZM780.86,296a6.89,6.89,0,0,0,0,9.67,6.51,6.51,0,0,0,4.8,2A6.86,6.86,0,0,0,790.47,296a6.58,6.58,0,0,0-4.81-2A6.49,6.49,0,0,0,780.86,296Zm4.65.44a6.29,6.29,0,0,1,2.36.32,2.18,2.18,0,0,1,1.36,2.2,1.91,1.91,0,0,1-.85,1.71,3.37,3.37,0,0,1-1.28.42,2.11,2.11,0,0,1,1.48.83,2.59,2.59,0,0,1,.51,1.37v1.25c0,.24,0,.41.13.5v.06h-1.44s0,0,0-.06a.13.13,0,0,0,0-.09l0-.26V304a2.15,2.15,0,0,0-.8-2,3.34,3.34,0,0,0-1.68-.29H784v3.39h-1.55v-8.66Zm1.59,1.38a3.66,3.66,0,0,0-1.8-.32H784v3.11h1.4a4.93,4.93,0,0,0,1.39-.15,1.36,1.36,0,0,0,.93-1.39A1.27,1.27,0,0,0,787.1,297.84Z"/><path d="M415.09,781.94l6.2-21.54h.47l6.37,21.54Zm21.28-34.71H399.9v11.45h5.45L389.7,809.53h-5v13.35h28.58V809.53h-4.91l3.54-14.15h19.88l4,14.15h-5v13.35H461.2V809.53h-5.09Zm71.33,62.3H500V762.22h10.73v11.4h12.14V747.23H456.45v26.39H468.6v-11.4h10.63v47.31H471.7v13.35h36Zm55.06,15.08c25.61,0,37-19.84,37-39.57S588.37,746,562.76,746s-37,19.39-37,39.23,11.43,39.43,37,39.43m0-61.35c8.59,0,16.54,7.44,16.54,21.78s-8.09,22.25-16.54,22.25-16.56-7.67-16.56-22.11,8-21.92,16.56-21.92m40.58,59.62h31V809.44h-6V795.09h4.69c8.24,0,9.61,4.1,9.61,11.37v16.42h24.68V809.53h-5.57v-7.08c0-8.19-1.77-13.91-12.36-16.16v-.42c7-1.29,14.06-6.65,14.06-18,0-13.65-10.65-20.63-30.31-20.63H603.34v13.33h5.83v48.88h-5.83Zm40.36-52.36c0,6.66-3.81,10.83-10.65,10.83h-4.69V760.56h4.58c7.6,0,10.76,3.18,10.76,10m58.61,11.42,6.17-21.54H709l6.4,21.54Zm21.27-34.71H687.09v11.45h5.52L677,809.53h-5.08v13.35h28.6V809.53h-4.92l3.59-14.15H719l4,14.15h-5v13.35h30.37V809.53h-5Zm58,13.64c11.52,0,18.86,5.91,18.86,22.8,0,19.26-7.88,25.49-19.34,25.49h-1.73V760.87ZM753,747.23v13.33h6v49h-6v13.35h29.75c22.49,0,38.06-13,38.06-38.9,0-24.5-15.19-36.75-37.37-36.75Zm71.35,75.65H881V798.44H868.49v11.09H850.64v-16.4h13.72V779.22H850.64V760.56h17.85v11.25H881V747.23H824.38v13.33h5.8v49h-5.8ZM346.84,781.19l-.09,14h12.79V806a17.66,17.66,0,0,1-7.88,1.66c-12.38,0-21.07-9.57-21.07-22.34,0-11.89,8.12-20.67,19.25-20.67,10.48,0,14.29,4.88,15.75,6.5h12.13V745.88H365.78v3.72a45,45,0,0,0-15.8-2.74c-23.78,0-41,16.56-41,39.71,0,22.41,16.47,38.11,40.1,38.11a52.13,52.13,0,0,0,29.93-9V781.19Z"/><path class="cls-2" d="M890,753.28a3.67,3.67,0,0,1-2.44,1,3.61,3.61,0,0,1-2.54-1,3.38,3.38,0,0,1-1-2.53,3.29,3.29,0,0,1,1-2.45,3.55,3.55,0,0,1,5,0,3.29,3.29,0,0,1,1,2.45A3.38,3.38,0,0,1,890,753.28Zm-4.65-4.67a3.09,3.09,0,0,0,2.21,5.26,2.76,2.76,0,0,0,2.07-.91,3,3,0,0,0,0-4.35,2.76,2.76,0,0,0-2.07-.83A2.91,2.91,0,0,0,885.31,748.61Zm2.06.24a4.28,4.28,0,0,1,1,.09,1,1,0,0,1,.64,1,.87.87,0,0,1-.39.75.66.66,0,0,1-.54.19,1.35,1.35,0,0,1,.71.39,1.47,1.47,0,0,1,.17.62v.59a.26.26,0,0,0,0,.2h-.64v-.06l0-.1v-.33c0-.48-.14-.77-.35-.88a1.85,1.85,0,0,0-.76-.13h-.6v1.5h-.62v-3.85Zm.77.57a3.07,3.07,0,0,0-.79-.11h-.67v1.4h.67a1.39,1.39,0,0,0,.62-.11.57.57,0,0,0,.44-.6A.63.63,0,0,0,888.14,749.42Z"/></svg>