<svg id="Capa_1" data-name="Capa 1" xmlns="http://www.w3.org/2000/svg" viewBox="0 0 1200 1095"><defs><style>.cls-1{fill:#2b2663;}</style></defs><title>web</title><path class="cls-1" d="M192.56,636.6h-.34L65.5,636.25A25.57,25.57,0,0,1,40,610.77h0l.23-126.88,6,.14-6-.14A25.58,25.58,0,0,1,65.84,458.4H66l126.6.35a25.48,25.48,0,0,1,25.47,24.88v.61l-.26,126.9a25.77,25.77,0,0,1-24.46,25.46h0m-1.14-11.93h.07a13.63,13.63,0,0,0,13.68-13.54l.31-126.72v-.17a13.68,13.68,0,0,0-13.65-13.69l-126.93-.22A13.62,13.62,0,0,0,52.17,484l-.34,126.81a13.59,13.59,0,0,0,13.67,13.5l126.29.35h.4"/><path class="cls-1" d="M96.75,603.11l-4.62-6.56c-2.43-3.49-9.88-14.66-16.95-25.08-6.94-10.11-13.3-19.72-13.35-19.82l20.49-13.79s6.42,9.62,13.41,20c3.71,5.44,7.58,11.23,10.77,15.87,4.32-6.26,9.84-14.31,16.4-23C139.36,529,162,502.73,188.33,484c17.59-12.35,37-21.6,58-22.38l.83,24.69c-13.49.4-28.41,6.73-43.19,16.95-14.73,10.06-29.13,23.95-41.66,38a448.79,448.79,0,0,0-44.65,60.91l-.14.08-9.8,16.88"/><path class="cls-1" d="M380.84,636.6H280.41c-9.27,0-17.44-3.83-23.8-11.13-6.36-7-9.58-16.19-9.57-26.27V553.65c0-10.22,3.21-19.26,9.57-26.4s14.53-11,23.8-11h134v29.13h-134c-2.78,0-4.24.76-5.2,1.75s-1.64,3.08-1.64,6.52V599.2c0,3.44.68,5.39,1.67,6.53.94.85,2.39,1.6,5.17,1.61H380.84c2.74,0,4.23-.76,5.2-1.61,1-1.14,1.72-3.09,1.72-6.53V588.35H322.08V565.61h92.13V599.2c0,10.08-3.26,19.26-9.63,26.27a30.4,30.4,0,0,1-23.65,11.13h-.09"/><path class="cls-1" d="M455.71,636.6H426.58V516.46h29.13Zm-3.11-3.11v0Z"/><polyline class="cls-1" points="541.53 636.6 465.18 516.25 498.53 516.25 555.42 605.72 613.94 516.25 641.71 516.25 641.71 519.36 641.71 516.25 647.79 516.25 568.94 636.6"/><path class="cls-1" d="M785.15,636.6H684.46a30.72,30.72,0,0,1-23.88-11.13A39,39,0,0,1,651,599.2V553.65a39.28,39.28,0,0,1,9.62-26.4,31,31,0,0,1,23.88-11H785.15c9,0,17.06,3.86,23.57,11.17s9.67,16.2,9.66,26.23V599.2c0,10-3.13,18.92-9.66,26.23s-14.38,11.17-23.53,11.17M679.51,547.67a9.18,9.18,0,0,0-2,6V599.2c0,3.44.77,5.39,1.6,6.53,1.09.85,2.33,1.6,5.33,1.61H785.15a5.62,5.62,0,0,0,4.66-2.31,7.88,7.88,0,0,0,2-5.83V553.65a8.09,8.09,0,0,0-2-6,6,6,0,0,0-4.66-2.3h-101a5.53,5.53,0,0,0-4.61,2.29"/><polyline class="cls-1" points="897.9 636.6 821.82 516.25 855.03 516.25 911.79 605.72 970.45 516.25 998.24 516.25 998.24 519.36 998.24 516.25 1004.29 516.25 925.54 636.6"/><path class="cls-1" d="M1135.92,636.6v-39h-98.78v39h-29.68v-83a39.14,39.14,0,0,1,9.61-26.22c6.21-7.32,14.32-11.2,23.55-11.18H1127c9.06,0,17.11,3.86,23.51,11.18a38.87,38.87,0,0,1,9.51,26.22v83m-3.2-3.11v0Zm-16.94-57.42v0Zm-100.78-28.54a8.7,8.7,0,0,0-2.25,6.12V573h99.89V553.65a9.23,9.23,0,0,0-2.08-6,6,6,0,0,0-4.85-2.31h-86.12a5.65,5.65,0,0,0-4.59,2.15"/></svg>