<svg id="Capa_1" data-name="Capa 1" xmlns="http://www.w3.org/2000/svg" viewBox="0 0 1200 1095"><defs><style>.cls-1{fill:#b2292e;fill-rule:evenodd;}.cls-2{fill:#161519;}.cls-3{fill:none;stroke:#b2292e;stroke-width:0.02px;}</style></defs><title>web</title><path class="cls-1" d="M922.42,512.51V487.76H842.15V562h49.23v24.78H842.15v74.16h80.27V636.25H866.89V611.44h49.42V537.21H866.89v-24.7Zm-155,62a160.95,160.95,0,1,1,160.94,161,160.89,160.89,0,0,1-160.94-161m24.94,0a136,136,0,1,1,136,136,136,136,0,0,1-136-136M934.94,636.3V661h80.24V586.76H965.81V562.09h49.37V487.81H934.94v24.76H990.4v24.75H941v74.21H990.4V636.3Z"/><path class="cls-2" d="M444.49,660.68c20.86,0,36.49-5,46.66-14.94,10.41-10.19,12.65-23.28,12.65-32.53,0-20.18-8.51-34.22-25.23-41.62l-.76-.33.7-.39c7.58-3.94,17.57-12,17.57-35.93,0-13.13-5-25-14.13-33.29-9.91-9.18-24.43-14-42-14l-90.64-.08V660.64Zm-62.2-105.12V519.37h54.92c9.66,0,25.82,0,25.82,19.1,0,7-3,11.95-9,14.71-5.33,2.49-12.14,2.76-16.68,2.76H382.29Zm0,32.15v-.39h60c5.53,0,13.39.87,19.71,5,5.89,3.84,8.9,9.53,8.9,16.91,0,5.92-1.62,10.48-4.78,13.67-5.86,5.89-16,5.81-23.44,5.81H382.09v-.35Z"/><rect class="cls-2" x="110.68" y="487.66" width="34.51" height="173.02"/><path class="cls-2" d="M173.29,572.68c0,16.7,2.8,30.53,8.64,42.25,4.85,9.72,11.74,17.91,21.64,25.78,15.48,12.3,37.22,18.56,64.62,18.56h47.24V626.54H270.8c-24.8,0-42.83-6.12-53.54-18.23-7.58-8.67-11.49-20.27-11.55-34.51-.11-15.34,4.18-27.54,12.83-36.23,10.77-10.87,28.36-16.37,52.26-16.37h44.63V488.81H269.84c-15.35,0-28.24,1.54-39.37,4.66s-20.29,7.78-27.95,14.29c-11,9.15-29.23,29.81-29.23,64.92"/><path class="cls-2" d="M524.6,572.68c0,16.7,2.94,31.45,8.7,43.79a75.66,75.66,0,0,0,21.63,27.32c14.5,11.54,35.08,16.9,64.59,16.9h49.83V628.05H622.19c-24.77,0-42.86-6.43-53.53-19-7.6-8.92-11.42-20.74-11.6-35.23-.12-15.77,4.36-28.32,13.29-37.33C581.2,525.53,598.59,520,622.19,520h47.16V487.66H621.17c-15.35,0-28.22,1.42-39.36,4.6s-20.32,7.81-27.94,14.26c-8.85,7.38-29.27,28.66-29.27,66.16"/><path class="cls-3" d="M922.42,512.51V487.76H842.15V562h49.23v24.78H842.15v74.16h80.27V636.25H866.89V611.44h49.42V537.21H866.89v-24.7Zm-155,62a160.95,160.95,0,1,1,160.94,161A160.89,160.89,0,0,1,767.43,574.48Zm24.94,0a136,136,0,1,1,136,136A136,136,0,0,1,792.37,574.48ZM934.94,636.3V661h80.24V586.76H965.81V562.09h49.37V487.81H934.94v24.76H990.4v24.75H941v74.21H990.4V636.3Z"/></svg>