<svg id="Capa_1" data-name="Capa 1" xmlns="http://www.w3.org/2000/svg" viewBox="0 0 1200 1095"><defs><style>.cls-1{fill:#e11f21;}</style></defs><title>web</title><path class="cls-1" d="M265.32,417.72H141V640.43H209.3v-82h57.38c46.46,0,56-64.21,56-64.21C322.7,421.83,265.32,417.72,265.32,417.72Zm-31.43,97H210.67V464.18l26,0s17.76,4.13,17.76,26S233.89,514.74,233.89,514.74Z"/><path class="cls-1" d="M332.37,472.38V641.73h62.45V560.07s16.82-45.64,57.65-13.21L477.7,482s-42-33.63-86.48,16.82V471.19Z"/><rect class="cls-1" x="492.11" y="473.59" width="62.46" height="168.14"/><path class="cls-1" d="M553.36,434a30,30,0,1,1-30-30A30,30,0,0,1,553.36,434Z"/><path class="cls-1" d="M645.84,421.94l-81.67,74.47V512H591.8v92.49S596.6,643,651.85,643c0,0,31.23,2.39,56.45-20.43v-48s-36,28.83-51.65,3.61V513.23H705.9V472.38H656.65V421.94Z"/><path class="cls-1" d="M794.78,421.94l-81.67,74.47V512h27.62v92.49S745.54,643,800.79,643c0,0,31.22,2.39,56.44-20.43v-48s-36,28.83-51.64,3.61V513.23h49.24V472.38H805.59V421.94Z"/><path class="cls-1" d="M876.4,473.56,929.3,600.9s6,16.82-3.61,32.43L887.26,710.2h60L1059,473.59h-58.85l-30,74.47L935.3,473.59Z"/></svg>