<svg id="Capa_1" data-name="Capa 1" xmlns="http://www.w3.org/2000/svg" viewBox="0 0 1200 1095"><defs><style>.cls-1{fill:#1b2f62;}</style></defs><title>web</title><path class="cls-1" d="M764.2,348.13a36.36,36.36,0,1,0,36.36,36.36A36.36,36.36,0,0,0,764.2,348.13Z"/><path class="cls-1" d="M602.55,394.76c-84.22,0-152.75,68.52-152.75,152.74s68.53,152.74,152.75,152.74S755.29,631.72,755.29,547.5,686.76,394.76,602.55,394.76Zm0,250.58a97.84,97.84,0,1,1,97.83-97.84A98,98,0,0,1,602.55,645.34Z"/><path class="cls-1" d="M723.8,857.61H476.18c-102.72,0-186.29-83.57-186.29-186.29V423.68c0-102.72,83.57-186.29,186.29-186.29H723.8c102.73,0,186.31,83.57,186.31,186.29V671.32C910.11,774,826.53,857.61,723.8,857.61ZM476.18,295.74A128.08,128.08,0,0,0,348.24,423.68V671.32A128.08,128.08,0,0,0,476.18,799.26H723.8c70.56,0,128-57.39,128-127.94V423.68c0-70.55-57.4-127.94-128-127.94Z"/></svg>