<svg id="Capa_1" data-name="Capa 1" xmlns="http://www.w3.org/2000/svg" viewBox="0 0 1200 1095"><defs><style>.cls-1{fill:#fff;}</style></defs><title>web</title><path class="cls-1" d="M954.09,324.1c-22.67,10.25-47.75,16.47-72.21,20.58,11.61-1.95,28.66-23,35.5-31.48,10.43-13,19.09-27.74,24-43.7.63-1.25,1.09-2.82-.16-3.76a4.11,4.11,0,0,0-3.82.32,368.36,368.36,0,0,1-85.63,32.76,5.71,5.71,0,0,1-5.9-1.56,69.73,69.73,0,0,0-7.48-7.65,151.34,151.34,0,0,0-41.48-25.42A144.57,144.57,0,0,0,733.27,254a152.11,152.11,0,0,0-60.34,17,155.45,155.45,0,0,0-48.69,39.77A149.5,149.5,0,0,0,595.17,369c-5,20.48-4.6,40.76-1.54,61.46.46,3.45.15,3.91-3,3.45-117.59-17.5-215.06-59.58-294.19-149.74-3.44-3.92-5.3-3.92-8.12.29-34.63,51.9-17.83,135.28,25.43,176.26,5.77,5.47,11.7,10.93,18.08,15.91-2.33.48-31.11-2.64-56.77-15.91-3.43-2.17-5.16-.93-5.46,3a88.64,88.64,0,0,0,.94,16.84c6.63,52.62,43.07,101.27,93,120.26a87.72,87.72,0,0,0,18.86,5.77c-11.37,2.5-23.08,4.28-55.68,1.72-4.05-.78-5.6,1.26-4.05,5.15,24.5,66.77,77.37,86.64,117,98,5.3.93,10.6.93,15.93,2.17-.33.49-.65.49-1,.94-13.12,20-58.67,34.93-79.88,42.34-38.57,13.49-80.57,19.55-121.33,15.54-6.53-1-7.9-.89-9.67,0-1.79,1.1-.23,2.66,1.87,4.35,8.28,5.46,16.69,10.31,25.27,15A399.67,399.67,0,0,0,352,824.17C497.77,864.42,662,834.84,771.4,726.1,857.35,640.71,887.47,523,887.47,405c0-4.62,5.45-7.16,8.69-9.6,22.36-16.8,40.4-36.91,57.08-59.36A18.06,18.06,0,0,0,957,324.71v-.61C957,322.21,957,322.78,954.09,324.1Z"/></svg>