<svg id="Capa_1" data-name="Capa 1" xmlns="http://www.w3.org/2000/svg" viewBox="0 0 1200 1095"><defs><style>.cls-1{fill:#fff;}</style></defs><title>web</title><path class="cls-1" d="M607.11,569.9a182.09,182.09,0,1,0,0-364.18C506.54,205.72,425,287.25,425,387.81A182.06,182.06,0,0,0,607.11,569.9Z"/><path class="cls-1" d="M680.21,751.76A136.36,136.36,0,0,1,778,621a382.74,382.74,0,0,0-26.34-44.63,266.3,266.3,0,0,1-289,0c-50.81,73.61-83.84,185-85.52,310.56H799.68A136.08,136.08,0,0,1,680.21,751.76Z"/><path class="cls-1" d="M816.42,652.27a95.32,95.32,0,0,0-23.1,2.81,99.44,99.44,0,0,0,23.1,196.18,95.36,95.36,0,0,0,19.06-1.86,99.5,99.5,0,0,0-19.06-197.13Zm68.65,118.86H835.64v49.29H797V771.13H747.77V732.39H797V683.12h38.6v49.27h49.43Z"/></svg>