<svg id="Capa_1" data-name="Capa 1" xmlns="http://www.w3.org/2000/svg" viewBox="0 0 1200 1095"><defs><style>.cls-1{fill:#fff;}</style></defs><title>web</title><path class="cls-1" d="M872,514.38l41.18-28.11L889.34,413l-49.8,1.45-38.87-53.58,16.58-47-62.17-45.28L715.49,299,652.58,278.5l-14.13-47.77h-77l-14,47.77L484.4,299,445,268.59l-62.34,45.28,16.75,47-39,53.58L310.55,413,286.8,486.27l41.06,28.11v66.26L286.8,608.87l23.75,73.25,49.79-1.46,39,53.59-16.75,46.88L445,826.41l39.45-30.28,63.05,20.39,14,47.75h77l14.13-47.75,62.91-20.39,39.59,30.28,62.17-45.28-16.58-46.88,38.87-53.59,49.8,1.46,23.86-73.25L872,580.64ZM737.61,590.09,736.45,594a143.94,143.94,0,0,1-50.08,68.87L683,665.36a144.23,144.23,0,0,1-81,26.37H598a144.28,144.28,0,0,1-81.11-26.37l-3.21-2.47A143,143,0,0,1,463.58,594l-1.31-3.93a144,144,0,0,1,0-85.18l1.31-3.78a144.14,144.14,0,0,1,50.08-69l3.21-2.33A144.33,144.33,0,0,1,598,403.43h4.07a144.28,144.28,0,0,1,81,26.35l3.36,2.33a145.05,145.05,0,0,1,50.08,69l1.16,3.78A143.84,143.84,0,0,1,737.61,590.09Z"/></svg>