<svg id="Capa_1" data-name="Capa 1" xmlns="http://www.w3.org/2000/svg" viewBox="0 0 1200 1095"><defs><style>.cls-1{fill:#1b2f62;}</style></defs><title>web</title><path class="cls-1" d="M980.25,590.13c0-80.31-90.31-145.75-201.29-145.75-6.64,0-13.29.24-19.68.72C737.41,352.38,625.6,281.59,491.45,281.59c-149.87,0-271.7,88.28-271.7,196.84,0,57.85,33.67,111.23,93,148.55L297.15,779.59,424.66,669.23a370.79,370.79,0,0,0,66.79,6,361.33,361.33,0,0,0,109.76-16.78C635.13,704.61,702,736,779,736a280.33,280.33,0,0,0,49.51-4.34L923,813.41,911.42,700.27C955.39,672.61,980.25,633,980.25,590.13Zm-488.8,39.48a327.54,327.54,0,0,1-69.21-7.24l-11.83-2.52-57.83,55.31,9.29-72.6-13.65-7.48c-52.65-29.22-83-71.71-83-116.65,0-83.44,101.43-151.29,226.18-151.29,111.33,0,204.19,54.07,222.66,125.09-79.22,19.55-136.45,74-136.45,137.9a107.87,107.87,0,0,0,3.5,27.18A323.82,323.82,0,0,1,491.45,629.61Zm393.66,47-10,5.56L882,736l-43-41.07-8.69,1.94A239.91,239.91,0,0,1,779,702.32a227,227,0,0,1-35.74-2.66c-3-.35-6.05-.85-8.94-1.47-3.63-.58-7.13-1.31-10.63-2.16s-6.64-1.67-9.89-2.53a.42.42,0,0,0-.25-.11c-3.38-1-6.64-2.06-9.91-3.13a177.61,177.61,0,0,1-18.71-7.38c-3-1.33-5.92-2.8-8.71-4.23s-5.65-3-8.32-4.61c-2.05-1.2-4-2.39-5.92-3.72a8.39,8.39,0,0,1-.92-.64,158,158,0,0,0,15.16,9,161,161,0,0,1-15.59-9.26c-.18-.16-.39-.27-.58-.41s-.45-.31-.69-.45a160.49,160.49,0,0,1-13.56-10.4,143.35,143.35,0,0,0,13.09,10.07c-.5-.34-1-.68-1.49-1-1.57-1.07-3.14-2.3-4.71-3.39v-.12c-.37-.24-.85-.59-1.21-.84-1.93-1.56-3.86-3.14-5.68-4.7s-3.87-3.52-5.67-5.33c-.25-.35-.6-.59-.84-1-1.93-1.94-3.75-3.85-5.45-5.79-1.32-1.46-2.52-3-3.74-4.59s-2.29-3-3.38-4.58c-.12-.14-.12-.26-.24-.26-1.08-1.55-2.05-3.14-3-4.83s-1.94-3.27-2.79-4.94c-.6-1.1-1.2-2.3-1.68-3.39-.72-1.56-1.45-3.25-2.05-4.84-.49-1.09-.85-2.16-1.22-3.25-.47-1.44-1-2.78-1.32-4.1-.48-1.82-1-3.64-1.33-5.43-.48-2.55-1-5.19-1.2-7.74a57.62,57.62,0,0,1-.49-8c0-1.94.12-3.86.24-5.8s.36-3.61.61-5.3v-.36c.24-1.46.47-2.78.84-4.25a75.84,75.84,0,0,1,3.62-12.19,45.13,45.13,0,0,1,2.3-5.3,71.41,71.41,0,0,1,5.55-10.27c1-1.7,2.17-3.25,3.38-4.95s2.3-3.14,3.51-4.6c1.32-1.68,2.77-3.37,4.22-5a56.41,56.41,0,0,1,4.47-4.57,24.18,24.18,0,0,1,3-2.9c1.21-1.31,2.65-2.4,4-3.63l2.53-2.16c2.29-1.83,4.59-3.5,6.88-5.19a170.75,170.75,0,0,1,16-10c4.11-2.29,8.33-4.34,12.78-6.39,3.15-1.47,6.42-2.79,9.79-4.1,2.9-1.09,6-2.32,9.06-3.28,1.2-.36,2.41-.82,3.63-1.09,3.14-1.09,6.39-2.05,9.65-2.87,2.9-.74,5.8-1.47,8.7-2.08,3.75-.95,7.48-1.68,11.22-2.29,2.67-.47,5.31-.85,8-1.2s5.44-.74,8.21-1c3.26-.35,6.53-.61,9.78-.83,5.19-.37,10.38-.48,15.7-.48,92.37,0,167.6,50.35,167.6,112.05C946.56,623.57,924.11,655,885.11,676.6Z"/></svg>