<svg id="Capa_1" data-name="Capa 1" xmlns="http://www.w3.org/2000/svg" viewBox="0 0 1200 1095"><defs><style>.cls-1{fill:#1b2f62;}</style></defs><title>web</title><path class="cls-1" d="M727,791.94a94.88,94.88,0,1,0,95-94.79A95,95,0,0,0,727,791.94Zm66.49,0A28.48,28.48,0,1,1,822,820.42,28.34,28.34,0,0,1,793.49,791.94Z"/><path class="cls-1" d="M440.25,791.94a94.87,94.87,0,1,0,95-94.79A95,95,0,0,0,440.25,791.94Zm66.47,0a28.49,28.49,0,1,1,28.48,28.48A28.34,28.34,0,0,1,506.72,791.94Z"/><path class="cls-1" d="M164.27,218.27l8.11,51.14c.8,4.87,7.52,8.45,15.65,8.45H306.81l91.81,381.73H946.17l89.65-370.29H374.06l-3.45-14.55-16.1-66.66H179.9a20.6,20.6,0,0,0-11.57,3.14C165.37,213.11,163.8,215.77,164.27,218.27ZM439.94,354.53l-9.87,9.85,9.18,9.26-9.18-9.2-6.61,6.6,6.61-6.66-9.85-9.85Zm142.53,0L585,357l0,0,29.59,29.55h0l22.06,22.05,0,0,29.58,29.56,0,0,22.07,22.06,0,0,29.59,29.57,0,0,10.06,10.05-10.08-10-29.59,29.42.08,0-17.21,17.24,17.13-17.28-29.38-29.42-12,11.88,11.91-11.93.08.05,29.38-29.57-22.05-22.06-29.58,29.42.05.07-14.08,14.07,14-14.14-29.39-29.42-13.34,13.23,13.27-13.27L585,416.05l-12.27,12.3L584.94,416l-29.42-29.42-20,19.87,19.91-19.92-22.12-22.12L526.71,371l6.59-6.66-9.83-9.85h19.7l-9.87,9.85,22.22,22.21L584.94,357l-2.49-2.51Zm127.94,187-10.09,10,10.07-10.06,0,0L740,511.9l0,0L762,489.83l0,0,29.55-29.57,0,0,11.06-11.08-11,11.11L821,489.85l.08-.05,16.06,16.09-16.14-16-29.42,29.42,15.47,15.55-15.49-15.51,0,0L762,489.85l-22,22,29.39,29.58.07,0,11.06,11.08-11.13-11L740,570.9l19.86,20L739.92,571l.07-.05Zm132.82-73.84,8.83,8.89-8.85-8.85,0,0-29.57-29.57,0,0-22-22.06,0,0L762,386.45l0,0-13.27-13.28L762,386.45,791.45,357l-1.86-2L791.5,357l0,.07L821,386.45l13.32-13.24-13.28,13.28,0,0L791.59,416l22.07,22.06,29.57-29.41-.06,0,13.29-13.28-13.23,13.32,29.42,29.41,16.14-16-16.07,16.1-.07-.06Zm-103.4-59-12-12.12,12.08,12.08,0,0,29.55,29.41,15.56-15.45-15.49,15.51-.07-.06L740,467.64l15.44,15.56-15.51-15.49.07-.07-29.58-29.42-15.55,15.44,15.53-15.5,0,.06Zm-93.4-54.13-9.87,9.85.05.05-10.08,10.05,10-10.1-9.83-9.85Zm103.25,0-9.85,9.85,0,0L717.8,386.49l0,0L688.19,416l.08,0-11.1,11.07,11-11.1-29.38-29.56-.08.07-20-19.93,20,19.86L688.19,357,687,355.78l1.23,1.23-.08,0,29.59,29.41,22.05-22.07L730,354.53ZM945.07,363l-8.42-8.45h10.14Zm-17.35,86-10.79-10.95,0,0L894.84,416l0,0-29.59-29.56,0,0-22-22.06,0,0-9.87-9.85h19.73l-9.86,9.85,22.06,22.07L894.88,357l-.07-.07,1.75-1.75L894.88,357l29.39,29.41,12.12-12-12.07,12.07,13.32,13.33,6.72-33.32.11-.09-6.76,33.5-13.44-13.46L894.88,416l22,22.06L933.2,421.8ZM861.35,597l3.91-3.93,0,0,29.59-29.57h0l2.48-2.46-2.44,2.47,8.11,8.13L897.84,597H869.2l-3.91-3.91-3.9,3.91Zm-103.27,0,3.94-3.95,0,0,29.55-29.57h0l22.07-22.07v0l29.57-29.58h0l22-22.06,0,0,29.59-29.57,0,0,11.07-11.08-11,11.11,25.48,25.5-2,10-23.46,23.47,15.45,15.47v.06l-15.49-15.49,0,0-29.59-29.42-22.06,22,29.42,29.58.07-.06,17.69,17.71-17.76-17.65L843.23,570.9l14,14.12L843.17,571l-22.12,22.12,2,2L821,593.11l-3.9,3.91H766L762,593.11l-3.9,3.91Zm-103.25,0,3.94-3.93L636.61,571l-19.88,19.92,19.83-20-29.39-29.42-11.13,11,11.06-11.07L585,519.33l-17.21,17.22,17.17-17.28-29.42-29.42-12.09,12,12-12.05-22.12-22.12L521.05,480l12.25-12.35-29.54-29.4.07-.05h0l29.51-29.52-22-22.07L481.71,416l8.82,8.89-8.82-8.83-8.84,8.83,8.84-8.89-29.59-29.4.07-.06h0L481.71,357l-2.52-2.51h0l2.52,2.51,29.54,29.55h0l22.07,22.05,0,0,29.59,29.56v0l22.05,22.07h0l29.59,29.57h0l22.06,22h0l29.58,29.58,0,0,22.07,22.07h0l29.59,29.57,0,0,3.92,3.95h0l-3.9-3.91L713.86,597H662.71l-3.9-3.91L654.89,597ZM452.19,489.83v0l29.52-29.52v0h0l29.5,29.52h0l0,0-29.53,29.53v0l0,0-29.51-29.5ZM551.56,597l3.94-3.91-7.37-7.35,7.39,7.35,29.42-29.57-22.05-22.06L533.38,571h0l0,0-29.38-29.55L490.6,554.71l13.23-13.25-8.8-8.81,8.89,8.83,29.38-29.56,0,0h0l29.47,29.51h0l0,0h0l22.05,22h0l29.59,29.57h0l3.9,3.91-3.9-3.91L610.62,597H559.44l-3.92-3.91L551.61,597Zm-102.4-.94,32.51-32.52,0,0h0l29.53,29.53h0L507.33,597H449.46ZM429.28,512.7l.76-.77,0,0,0,0,29.51,29.52h0v0l-18.9,18.91ZM420.69,477l5.1-5-5,5.06,5.13,21.42Zm-11.28-47.56,20.66-20.79v0l0,0,29.5,29.51h0v.05l-29.47,29.53-.06,0,0,0-15.17-15.31Zm-13.14-54.6L408,386.55l0,0,.05,0-7.17,7Z"/><polygon class="cls-1" points="813.66 541.48 843.23 570.9 821.01 593.11 791.59 563.54 813.66 541.48"/><polygon class="cls-1" points="636.56 408.66 607.17 438.22 607.1 438.18 584.94 416.01 614.53 386.59 636.56 408.66"/><polygon class="cls-1" points="533.3 467.64 562.89 438.22 584.94 460.28 555.52 489.85 533.3 467.64"/><polygon class="cls-1" points="584.94 519.27 614.53 489.85 636.56 511.9 607.17 541.48 584.94 519.27"/><polygon class="cls-1" points="666.14 541.48 688.2 563.54 658.81 593.11 636.56 570.9 666.14 541.48"/></svg>