<svg id="Capa_1" data-name="Capa 1" xmlns="http://www.w3.org/2000/svg" viewBox="0 0 1200 1095"><defs><style>.cls-1,.cls-2{fill:#1b2f62;}.cls-2{fill-rule:evenodd;}</style></defs><title>web</title><path class="cls-1" d="M303,845.24,345.68,686a293.14,293.14,0,0,1-36.9-142.08c0-162.17,132-294.11,294.12-294.11S897,381.7,897,543.87,765.08,838,602.9,838a293.36,293.36,0,0,1-139.81-35.64ZM471.05,742.66l10.09,6A238,238,0,0,0,602.9,782.39c131.52,0,238.52-107,238.52-238.52s-107-238.52-238.52-238.52-238.52,107-238.52,238.52a237.84,237.84,0,0,0,34.88,123.67l6.19,10.15-23.83,88.94Z"/><path class="cls-2" d="M712.31,584.77c-12.11-7.24-27.86-15.32-42.12-9.49-10.94,4.48-17.93,21.61-25,30.35-3.64,4.49-8,5.19-13.57,2.94C590.54,592.22,559.06,564.8,536.4,527c-3.84-5.87-3.15-10.5,1.48-15.95,6.85-8.05,15.44-17.21,17.29-28.08s-3.24-23.56-7.73-33.23c-5.74-12.36-12.15-30-24.53-37-11.39-6.43-26.38-2.83-36.52,5.43-17.5,14.25-25.95,36.58-25.7,58.72A83.21,83.21,0,0,0,463,495.56c3.53,14.61,10.28,28.24,17.87,41.2a323.52,323.52,0,0,0,18.67,28.38c22,29.84,49.3,55.77,80.94,75.16,15.81,9.68,32.84,18.17,50.48,24,19.77,6.54,37.4,13.34,58.76,9.28,22.35-4.24,44.4-18.08,53.28-39.63,2.62-6.38,3.94-13.49,2.47-20.22C742.44,599.79,723.58,591.51,712.31,584.77Z"/></svg>